<?xml version="1.0" standalone="no"?>
<!DOCTYPE svg PUBLIC "-//W3C//DTD SVG 20010904//EN"
 "http://www.w3.org/TR/2001/REC-SVG-20010904/DTD/svg10.dtd">
<svg version="1.0" xmlns="http://www.w3.org/2000/svg"
 width="1024.000000pt" height="1024.000000pt" viewBox="0 0 1024.000000 1024.000000"
 preserveAspectRatio="xMidYMid meet">

<g transform="translate(0.000000,1024.000000) scale(0.100000,-0.100000)"
fill="#16a34a" stroke="none">
<path d="M4892 7919 c-883 -68 -1653 -510 -2131 -1224 -495 -739 -614 -1671
-321 -2520 349 -1010 1272 -1743 2355 -1870 163 -19 502 -22 645 -6 654 76
1223 347 1679 801 446 444 722 994 817 1625 22 142 29 504 15 661 -80 843
-535 1608 -1236 2076 -510 340 -1176 507 -1823 457z m443 -529 c533 -49 1015
-269 1398 -639 377 -365 603 -813 678 -1351 19 -133 16 -453 -5 -595 -53 -351
-175 -671 -363 -953 -104 -156 -183 -251 -319 -382 -350 -337 -775 -548 -1259
-625 -161 -26 -436 -31 -592 -11 -292 37 -430 109 -499 259 -26 55 -29 73 -29
162 0 110 15 154 72 206 59 56 106 67 348 89 378 34 760 193 1075 447 158 128
351 345 462 518 220 347 367 802 398 1230 21 297 8 737 -26 884 -20 88 -49
151 -70 151 -9 0 -47 -20 -84 -45 -82 -54 -163 -92 -285 -133 -172 -57 -303
-84 -784 -162 -483 -78 -835 -192 -1120 -363 -255 -154 -476 -345 -604 -525
-117 -164 -212 -391 -254 -607 -27 -139 -24 -426 6 -565 28 -134 61 -232 115
-345 48 -99 135 -228 165 -245 17 -9 21 -4 37 43 168 513 686 1099 1384 1564
195 130 567 349 576 340 2 -2 -44 -40 -103 -83 -343 -254 -812 -717 -1166
-1151 -276 -339 -440 -639 -493 -898 -19 -96 -28 -314 -16 -405 5 -41 8 -76 7
-78 -2 -2 -40 20 -86 48 -600 372 -997 1009 -1070 1719 -16 159 -7 453 20 606
127 719 543 1300 1171 1633 391 208 868 303 1315 262z"/>
</g>
</svg>
